{"title":"Rey Mysterio Vs Mr 450 Hammet WWC Caguas Puerto Rico 2016 2 27 x","uid":13704597,"size":347745828,"categoryP":"video","categoryS":"tv_shows","magnet":"?xt=urn:btih:242aba091d5b6b7eeaa2b12fbf32da67679692c0&amp;dn=Rey+Mysterio+Vs+Mr+450+Hammet+WWC+Caguas+Puerto+Rico+2016+2+27+x&amp;tr=udp%3A%2F%2Ftracker.leechers-paradise.org%3A6969&amp;tr=udp%3A%2F%2Fzer0day.ch%3A1337&amp;tr=udp%3A%2F%2Fopen.demonii.com%3A1337&amp;tr=udp%3A%2F%2Ftracker.coppersurfer.tk%3A6969&amp;tr=udp%3A%2F%2Fexodus.desync.com%3A6969","seeders":0,"leechers":1,"uploader":"CenaCme","files":2,"time":1456805529,"description":"Source: Rey Mysterio Vs. Mr 450 Hammet - WWC - Caguas, Puerto Rico - 2-27-16 (Captured with a iPhone 6 Plus)\r\n\r\n Format : MPEG-4\r\n Format profile : Base Media / Version 2\r\n Codec ID : mp42\r\n File size : 332 MiB\r\n Duration : 27mn 40s\r\n Overall bit rate mode : Variable\r\n Overall bit rate : 1 675 Kbps\r\n Encoded date : UTC 2036-02-06 06:28:16\r\n Tagged date : UTC 2036-02-06 06:28:16\r\n Writing application : HandBrake 0.10.2 2015060900\r\n\r\n Video\r\n ID : 1\r\n Format : AVC\r\n Format/Info : Advanced Video Codec\r\n Format profile :   \r\n Format settings, CABAC : Yes\r\n Format settings, ReFrames : 4 frames\r\n Codec ID : avc1\r\n Codec ID/Info : Advanced Video Coding\r\n Duration : 27mn 40s\r\n Bit rate : 1 500 Kbps\r\n Width : 720 pixels\r\n Height : 406 pixels\r\n Display aspect ratio : 16:9\r\n Frame rate mode : Variable\r\n Frame rate : 60.000 fps\r\n Minimum frame rate : 59.880 fps\r\n Maximum frame rate : 60.120 fps\r\n Color space : YUV\r\n Chroma subsampling : 4:2:0\r\n Bit depth : 8 bits\r\n Scan type : Progressive\r\n Bits/(Pixel*Frame) : 0.086\r\n Stream size : 297 MiB (90%)\r\n Writing library : x264 core 142 r2479 dd79a61\r\n Encoding settings : cabac=1 / ref=1 / deblock=1:0:0 / analyse=0x1:0x111 / me=hex / subme=2 / psy=1 / psy_rd=1.00:0.00 / mixed_ref=0 / me_range=16 / chroma_me=1 / trellis=0 / 8x8dct=0 / cqm=0 / deadzone=21,11 / fast_pskip=1 / chroma_qp_offset=0 / threads=6 / lookahead_threads=2 / sliced_threads=0 / nr=0 / decimate=1 / interlaced=0 / bluray_compat=0 / constrained_intra=0 / bframes=3 / b_pyramid=2 / b_adapt=1 / b_bias=0 / direct=1 / weightb=1 / open_gop=0 / weightp=1 / keyint=600 / keyint_min=60 / scenecut=40 / intra_refresh=0 / rc_lookahead=10 / rc=2pass / mbtree=1 / bitrate=1500 / ratetol=1.0 / qcomp=0.60 / qpmin=0 / qpmax=69 / qpstep=4 / cplxblur=20.0 / qblur=0.5 / vbv_maxrate=20000 / vbv_bufsize=25000 / nal_hrd=none / filler=0 / ip_ratio=1.40 / aq=1:1.00\r\n Encoded date : UTC 2036-02-06 06:28:16\r\n Tagged date : UTC 2036-02-06 06:28:16\r\n Color range : Limited\r\n Color primaries : BT.709\r\n Transfer characteristics : BT.709\r\n Matrix coefficients : BT.709\r\n\r\n Audio\r\n ID : 2\r\n Format : AAC\r\n Format/Info : Advanced Audio Codec\r\n Format profile : LC\r\n Codec ID : 40\r\n Duration : 27mn 40s\r\n Bit rate mode : Variable\r\n Bit rate : 161 Kbps\r\n Channel(s) : 2 channels\r\n Channel positions : Front: L R\r\n Sampling rate : 48.0 KHz\r\n Compression mode : Lossy\r\n Stream size : 31.8 MiB (10%)\r\n Title : Stereo / Stereo\r\n Language : English\r\n Encoded date : UTC 2036-02-06 06:28:16\r\n Tagged date : UTC 2036-02-06 06:28:16\r\n\r\n\r\nThumb sheet:\r\n \nhttp://extraimago.com/image/a2uA","torrent":{"xt":"urn:btih:242aba091d5b6b7eeaa2b12fbf32da67679692c0","amp;dn":"Rey+Mysterio+Vs+Mr+450+Hammet+WWC+Caguas+Puerto+Rico+2016+2+27+x","amp;tr":["udp%3A%2F%2Ftracker.leechers-paradise.org%3A6969","udp%3A%2F%2Fzer0day.ch%3A1337","udp%3A%2F%2Fopen.demonii.com%3A1337","udp%3A%2F%2Ftracker.coppersurfer.tk%3A6969","udp%3A%2F%2Fexodus.desync.com%3A6969"],"infoHash":"242aba091d5b6b7eeaa2b12fbf32da67679692c0","infoHashBuffer":{"type":"Buffer","data":[36,42,186,9,29,91,107,126,234,162,177,47,191,50,218,103,103,150,146,192]},"announce":[],"urlList":[]}}